<svg xmlns="http://www.w3.org/2000/svg" xmlns:xlink="http://www.w3.org/1999/xlink" width="24" height="22" viewBox="0 0 24 22"><defs><path id="i4jaa" d="M715 35h20a2 2 0 0 1 0 4h-20a2 2 0 0 1 0-4z"/><path id="i4jab" d="M715 44h20a2 2 0 1 1 0 4h-20a2 2 0 1 1 0-4z"/><path id="i4jac" d="M715 52.999h20a2 2 0 0 1 0 4h-20a2 2 0 1 1 0-4z"/></defs><g><g transform="translate(-713 -35)"><use fill="#fff" xlink:href="#i4jaa"/></g><g transform="translate(-713 -35)"><use fill="#fff" xlink:href="#i4jab"/></g><g transform="translate(-713 -35)"><use fill="#fff" xlink:href="#i4jac"/></g></g></svg>